<svg xmlns="http://www.w3.org/2000/svg" viewBox="0 0 1024 1024"><path d="M460 961c-6-21 24-22 33-34a255 255 0 0 0 73-294c-9-21-23-41-32-63a212 212 0 0 1 101 313c-38 55-108 86-175 78"/><path d="M348 941c-44-7-89-24-116-61 106 19 218-40 268-133q34-65 34-137c48 72 41 171-7 241a193 193 0 0 1-179 90"/><path d="M277 844q-46-3-85-26c-42-26-70-72-74-121 24 6 41 27 64 35 42 20 91 28 137 24 65-8 125-42 165-92 14-12 21-29 34-42 2 81-51 158-123 196q-55 30-118 26m-11-655c-13-20-22-49-6-71 12-17 36-16 55-23q85-23 172-41c30-6 65-6 89 15 17 16 27 38 38 59 6 14 1 41-19 37q-24-6-49-10c-93-15-191-4-277 36zm643 424a328 328 0 0 0-221-181c-47-11-95-5-142-9-32 0-53-37-48-67 1-21 25-23 41-25 60-2 122 4 177 28a342 342 0 0 1 196 260z"/><path d="M927 586c-26-98-86-191-177-240-61-33-133-44-202-40-7 2-30 5-14-7 28-34 42-81 30-124 99 11 201 42 273 114 77 77 110 193 92 300q-2-1-2-3"/><path d="M466 168c-79-2-160 23-222 74A409 409 0 0 0 91 523q-3 43 11 82c22 65 84 111 151 118 54 8 110-5 155-34-45 0-93-25-110-69-19-45 5-96 39-127 45-41 107-58 166-65a80 80 0 0 1-20-104c15-23 41-38 51-64 13-27 16-59 8-88zm-45 143c-36-4-60-47-44-80 15-35 66-45 92-17 27 24 21 74-12 91q-17 9-36 6"/><path d="M427 282a28 28 0 0 1-4-55h13a28 28 0 0 1-9 55"/></svg>