<svg xmlns="http://www.w3.org/2000/svg" viewBox="0 0 1024 1024"><path fill="#ff7f2a" d="M460.11 960.59c-6.58-20.816 24.022-21.174 32.944-34.03 40.608-35.76 71.99-82.373 84.825-134.801 13.577-52.23 9.187-108.67-11.52-158.48-9.822-21.604-23.342-41.377-32.84-63.135 40.404 16.157 74.87 45.77 99.011 81.233 44.737 68.485 49.331 163.575 2.036 232.006-37.858 54.488-107.824 85.495-174.457 77.207"/><path fill="#ff7f2a" d="M347.637 941.206c-43.478-7.486-89.026-24.37-115.432-61.059 106.244 19.206 218.163-40.45 267.857-133.079 22.319-42.201 35-89.634 34.042-137.327 48.057 72.135 40.483 170.767-6.863 241.333-37.923 58.002-108.003 99.509-179.604 90.132"/><path fill="#ff7f2a" d="M276.602 844.287c-29.355-3.627-59.073-9.9-84.137-26.16-42.14-26.12-69.967-72.57-74.359-121.161 24.087 6.106 40.963 26.657 64.029 35.29 42.283 19.837 90.455 27.74 137.04 23.467 64.675-7.292 124.97-42.037 165.103-92.083 13.458-12.002 20.9-28.917 33.233-41.788 2.076 81.47-50.693 158.384-122.76 195.996-36.023 18.769-77.09 30.592-118.15 26.439"/><path fill="#c8ab37" d="M266 189c-12.914-20.435-21.727-49.156-6.315-70.69 12.786-17.454 36.473-16.798 55.153-23.26 57.518-13.689 114.39-30.351 172.549-41.186 29.691-5.588 64.205-6.23 88.204 15.02 17.564 16.032 27.042 38.417 38.417 58.8 5.864 14.03 1.225 40.867-18.634 37.726-16.333-4.306-32.668-8.202-49.454-10.543-93.029-15.284-190.984-4.14-276.67 35.883-1.295-.25-2.272-.896-3.25-1.75"/><path d="M544.787 330.766c-15.483 1.934-39.962 1.078-44.968 19.185-8.539 29.211 8.558 67.343 40.208 72.685 48.458 4.56 97.684-1.609 145.638 8.767 96.929 18.737 177.332 90.612 221.152 177.214 5.07 11.973 5.973 10.26 3.091-1.904-19.65-102.717-88.258-195.69-181.988-242.588-52.42-25.497-111.32-34.184-169.157-33.466-4.659-.074-9.32-.074-13.976.107"/><path fill="#d40000" d="M927 586c-26.385-97.922-86.201-191.129-177.124-240.09-61.318-33.155-132.823-43.79-201.754-39.851-7.524 2.006-30.34 5.248-14.285-7.097C562.056 265.287 576.034 218.019 564 175c98.872 10.919 200.798 42.245 272.532 114.429 77.273 76.985 110.572 193.07 92.077 299.884-1.35-.346-.978-2.328-1.609-3.313"/><path fill="#050" d="M466 168c-79-2-160 23-222 74A409 409 0 0 0 91 523q-3 43 11 82c22 65 84 111 151 118 54 8 110-5 155-34-45 0-93-25-110-69-19-45 5-96 39-127 45-41 107-58 166-65a80 80 0 0 1-20-104c15-23 41-38 51-64 13-27 16-59 8-88zm-45 143c-36-4-60-47-44-80 15-35 66-45 92-17 27 24 21 74-12 91q-17 9-36 6"/><path d="M427 282a28 28 0 0 1-4-55h13a28 28 0 0 1-9 55"/></svg>